# xmcd CD database file
#
# Track frame offsets:
#	150
#	29595
#	52935
#	68465
#	93942
#	107202
#	124902
#	148847
#	157232
#	183037
#	190287
#	214712
#	242960
#	269622
#
# Disc length: 4440 seconds
#
# Revision: 3
# Processed by: cddbd v1.5.2PL0 Copyright (c) Steve Scherf et al.
# Submitted via: CDex 1.70beta2
#
DISCID=d011560e
DTITLE=Megadeth - Rust In Peace 
DYEAR=1990
DGENRE=Thrash Metal
TTITLE0=Holy Wars...The Punishment Due
TTITLE1=Hangar 18
TTITLE2=Take No Prisoners
TTITLE3=Five Magics
TTITLE4=Poison Was The Cure
TTITLE5=Lucretia
TTITLE6=Tornado Of Souls
TTITLE7=Dawn Patrol
TTITLE8=Rust In Peace... Polaris
TTITLE9=My Creation
TTITLE10=Rust In Peace... Polaris (Demo)
TTITLE11=Holy Wars... The Punishment Due (Demo)
TTITLE12=Take No Prisoners (Demo)
TTITLE13=Data Track
EXTD=YEAR: 1990
EXTT0=
EXTT1=
EXTT2=
EXTT3=
EXTT4=
EXTT5=
EXTT6=
EXTT7=
EXTT8=
EXTT9=
EXTT10=
EXTT11=
EXTT12=
EXTT13=
PLAYORDER=
